Patient4_TMGait_0pt6_01_right_32_GRF.mot
version=1
nRows=78
nColumns=19
inDegrees=no
endheader
time	F1x	F1y	F1z	M1x	M1y	M1z	F2x	F2y	F2z	M2x	M2y	M2z	EC1x	EC1y	EC1z	EC2x	EC2y	EC2z
38.27	-7.6255	734.0943	47.3491	-263.7692	-47.7688	721.8603	2.3856	-3.2989	-5.3532	1.5266	5.1382	-9.8706	-0.0592	0.0182	-0.0073	-0.0462	0.0165	0.9585
38.2829	-7.0327	734.6125	49.8393	-263.535	-49.6567	719.8916	1.4319	-1.1058	-3.731	1.5001	3.7373	-5.5131	-0.0592	0.0182	-0.0073	-0.0462	0.0165	0.9585
38.2957	-5.859	735.6504	51.6475	-263.6247	-50.625	717.4972	0.61305	0.78982	-2.3127	1.4787	2.4796	-1.7364	-0.0592	0.0182	-0.0073	-0.0462	0.0165	0.9585
38.3086	-4.093	737.4032	52.724	-264.1332	-50.6178	714.9143	-0.035481	2.2857	-1.2057	1.4721	1.4801	1.2429	-0.0592	0.0182	-0.0073	-0.0462	0.0165	0.9585
38.3214	-1.7841	739.9024	53.1378	-265.0606	-49.7241	712.3026	-0.49239	3.3613	-0.42348	1.4778	0.75507	3.3778	-0.0592	0.0182	-0.0073	-0.0462	0.0165	0.9585
38.3343	0.96119	742.9777	53.1053	-266.3078	-48.192	709.6774	-0.80452	4.0626	0.067172	1.4906	0.28932	4.7653	-0.0592	0.0182	-0.0073	-0.0462	0.0165	0.9585
38.3471	4.022	746.3333	52.8221	-267.7148	-46.2617	706.9477	-1.0058	4.4291	0.32614	1.4946	0.038045	5.5022	-0.0592	0.0182	-0.0073	-0.0462	0.0165	0.9585
38.36	7.2445	749.6348	52.533	-269.0981	-44.2255	703.9857	-1.1358	4.4933	0.40912	1.4674	-0.040146	5.699	-0.0592	0.0182	-0.0073	-0.0462	0.0165	0.9585
38.3729	10.5033	752.6091	52.3997	-270.2967	-42.2955	700.6874	-1.2273	4.2593	0.37341	1.3795	0.0068425	5.4334	-0.0592	0.0182	-0.0073	-0.0462	0.0165	0.9585
38.3857	13.6975	755.0675	52.5762	-271.1877	-40.6623	696.9925	-1.2931	3.6958	0.25911	1.1925	0.14369	4.7229	-0.0592	0.0182	-0.0073	-0.0462	0.0165	0.9585
38.3986	16.8299	756.9196	53.1179	-271.706	-39.3893	692.8768	-1.3533	2.7619	0.10844	0.86835	0.33321	3.575	-0.0592	0.0182	-0.0073	-0.0462	0.0165	0.9585
38.4114	19.9565	758.1575	54.0565	-271.8372	-38.4908	688.3708	-1.3896	1.3918	-0.05585	0.36931	0.5374	1.9417	-0.0592	0.0182	-0.0073	-0.0462	0.0165	0.9585
38.4243	23.1987	758.8448	55.3531	-271.6115	-37.8922	683.542	-1.3899	-0.43886	-0.20356	-0.32215	0.70608	-0.17608	-0.0592	0.0182	-0.0073	-0.0462	0.0165	0.9585
38.4371	26.6528	759.1048	56.9511	-271.0889	-37.5081	678.4985	-1.2863	-2.6994	-0.3131	-1.1932	0.78378	-2.7456	-0.0592	0.0182	-0.0073	-0.0462	0.0165	0.9585
38.45	30.3548	759.0778	58.7529	-270.3394	-37.2394	673.3786	-1.0122	-5.2051	-0.34633	-2.1681	0.70294	-5.5558	-0.0592	0.0182	-0.0073	-0.0462	0.0165	0.9585
38.4629	34.2553	758.8145	60.6652	-269.4028	-37.0231	668.2637	-0.4661	-7.5561	-0.25762	-3.0821	0.37753	-8.1765	-0.0592	0.0182	-0.0073	-0.0462	0.0165	0.9585
38.4757	38.2141	758.2503	62.5932	-268.2739	-36.8289	663.1619	0.45479	-9.0417	0.013217	-3.6452	-0.29801	-9.8417	-0.0592	0.0182	-0.0073	-0.0462	0.0165	0.9585
38.4886	42.0511	757.2287	64.4547	-266.9113	-36.6548	658.0055	1.8397	-8.5486	0.53184	-3.4075	-1.4286	-9.3361	-0.0592	0.0182	-0.0073	-0.0462	0.0165	0.9585
38.5014	45.5593	755.5409	66.1648	-265.2543	-36.5001	652.6862	3.7392	-4.5364	1.3644	-1.7457	-3.0986	-4.9711	-0.0592	0.0182	-0.0073	-0.0462	0.0165	0.9585
38.5143	48.5989	752.9371	67.6202	-263.2334	-36.3334	647.0377	6.0859	4.9595	2.5526	2.1295	-5.3206	5.4297	-0.0592	0.0182	-0.0073	-0.0462	0.0165	0.9585
38.5271	51.0949	749.0949	68.6737	-260.7627	-36.0632	640.8031	8.67	22.1458	4.0853	9.1025	-7.9842	24.3086	-0.0592	0.0182	-0.0073	-0.0462	0.0165	0.9585
38.54	53.0744	743.486	69.1407	-257.7004	-35.5368	633.5107	11.0053	49.133	5.8571	20.0103	-10.7639	54.0186	-0.0592	0.0182	-0.0073	-0.0462	0.0165	0.9585
38.5529	54.6349	735.2145	68.8257	-253.7903	-34.5638	624.3456	12.2814	87.2628	7.6184	35.3727	-13.0401	96.062	-0.0592	0.0182	-0.0073	-0.0462	0.0165	0.9585
38.5657	55.9135	722.9258	67.521	-248.6208	-32.9309	612.0965	11.3046	136.197	8.9129	55.0196	-13.8283	150.1196	-0.0592	0.0182	-0.0073	-0.0462	0.0165	0.9585
38.5786	56.9823	704.8106	65.0695	-241.6203	-30.4882	595.1621	6.8482	192.8517	9.1638	77.6648	-12.0095	212.8453	-0.0592	0.0182	-0.0073	-0.0462	0.0165	0.9585
38.5914	57.7529	678.902	61.3893	-232.1472	-27.2067	571.8545	-1.1984	250.9527	7.5739	100.7324	-6.7093	277.3195	-0.0592	0.0182	-0.0073	-0.0462	0.0165	0.9585
38.6043	57.9577	643.549	56.5472	-219.6483	-23.2413	540.7903	-10.9989	303.4071	3.5031	121.3444	1.9655	335.5844	-0.0592	0.0182	-0.0073	-0.0462	0.0165	0.9585
38.6171	57.2403	598.1183	50.761	-203.8882	-18.8965	501.5059	-20.7246	346.6954	-2.5315	138.0991	12.6751	383.5186	-0.0592	0.0182	-0.0073	-0.0462	0.0165	0.9585
38.63	55.2916	543.2665	44.4155	-185.0504	-14.5822	454.6103	-29.1649	381.5399	-9.7598	151.3221	24.0856	421.7224	-0.0592	0.0182	-0.0073	-0.0462	0.0165	0.9585
38.6429	51.9079	480.8218	37.9013	-163.7113	-10.6709	401.6784	-35.8107	410.8727	-17.2035	162.2577	34.9328	453.3713	-0.0592	0.0182	-0.0073	-0.0462	0.0165	0.9585
38.6557	46.9798	413.4969	31.5224	-140.755	-7.4323	344.9949	-40.6894	438.1742	-24.1279	172.3708	44.4374	482.2604	-0.0592	0.0182	-0.0073	-0.0462	0.0165	0.9585
38.6686	40.5435	344.5863	25.4978	-117.2748	-5.0258	287.2963	-44.0677	466.5372	-29.9578	182.9539	52.1048	511.7202	-0.0592	0.0182	-0.0073	-0.0462	0.0165	0.9585
38.6814	32.8522	277.5909	19.9941	-94.4506	-3.4926	231.4507	-46.246	498.2239	-34.6383	194.9209	57.998	544.1725	-0.0592	0.0182	-0.0073	-0.0462	0.0165	0.9585
38.6943	24.4524	215.7812	15.1612	-73.3934	-2.7544	180.0951	-47.5257	534.3274	-38.3797	208.6837	62.4717	580.7889	-0.0592	0.0182	-0.0073	-0.0462	0.0165	0.9585
38.7071	16.1049	161.6381	11.1147	-54.9502	-2.6255	135.1933	-48.2287	574.4031	-41.6929	224.0149	66.1841	621.1414	-0.0592	0.0182	-0.0073	-0.0462	0.0165	0.9585
38.72	8.5543	116.4418	7.9108	-39.5602	-2.879	97.7291	-48.6328	616.6392	-44.964	240.1538	69.6492	663.3288	-0.0592	0.0182	-0.0073	-0.0462	0.0165	0.9585
38.7329	2.3337	80.3012	5.479	-27.2617	-3.2628	67.7404	-49.0027	658.6162	-48.4619	256.1105	73.234	704.845	-0.0592	0.0182	-0.0073	-0.0462	0.0165	0.9585
38.7457	-2.2678	52.4852	3.7061	-17.8032	-3.5809	44.5978	-49.4144	698.0702	-52.0548	270.9918	76.8359	743.3149	-0.0592	0.0182	-0.0073	-0.0462	0.0165	0.9585
38.7586	-5.1359	31.8489	2.4219	-10.7927	-3.6509	27.3617	-49.8536	733.2243	-55.5192	284.1071	80.2183	776.9083	-0.0592	0.0182	-0.0073	-0.0462	0.0165	0.9585
38.7714	-6.2937	17.1193	1.4794	-5.7962	-3.3631	14.9948	-50.1738	762.6171	-58.5808	294.9074	83.0556	804.1191	-0.0592	0.0182	-0.0073	-0.0462	0.0165	0.9585
38.7843	-5.9777	7.128	0.75284	-2.4162	-2.707	6.5494	-50.2165	785.1173	-61.0918	302.9681	85.1394	823.8346	-0.0592	0.0182	-0.0073	-0.0462	0.0165	0.9585
38.7971	-4.7552	0.91911	0.22418	-0.32608	-1.8747	1.2457	-49.817	799.9713	-62.9279	308.0107	86.2943	835.3541	-0.0592	0.0182	-0.0073	-0.0462	0.0165	0.9585
38.81	-3.2282	-2.3859	-0.11642	0.77665	-1.0753	-1.6051	-48.8697	806.8961	-64.0982	309.9359	86.5042	838.4788	-0.0592	0.0182	-0.0073	-0.0462	0.0165	0.9585
38.8229	-1.7495	-3.6779	-0.29618	1.1945	-0.41684	-2.7445	-47.3437	806.2941	-64.6167	308.9133	85.7906	833.7133	-0.0592	0.0182	-0.0073	-0.0462	0.0165	0.9585
38.8357	-0.50567	-3.7109	-0.36547	1.1848	0.071139	-2.7978	-45.2411	799.351	-64.5798	305.416	84.2699	822.3364	-0.0592	0.0182	-0.0073	-0.0462	0.0165	0.9585
38.8486	0.43105	-3.0608	-0.36087	0.94454	0.39232	-2.259	-42.6378	787.8888	-64.0759	300.1636	82.0797	806.2587	-0.0592	0.0182	-0.0073	-0.0462	0.0165	0.9585
38.8614	1.0785	-2.1287	-0.32044	0.61208	0.58286	-1.4861	-39.6389	774.0095	-63.2276	293.988	79.4078	787.6373	-0.0592	0.0182	-0.0073	-0.0462	0.0165	0.9585
38.8743	1.461	-1.1548	-0.26982	0.27191	0.67814	-0.66447	-36.4047	759.8276	-62.126	287.7274	76.4255	768.6217	-0.0592	0.0182	-0.0073	-0.0462	0.0165	0.9585
38.8871	1.6712	-0.2775	-0.21993	-0.029035	0.71417	0.074361	-33.0895	747.2129	-60.8671	282.1289	73.302	751.0696	-0.0592	0.0182	-0.0073	-0.0462	0.0165	0.9585
38.9	1.7394	0.45693	-0.18075	-0.27402	0.71342	0.71482	-29.8354	737.6733	-59.5135	277.7976	70.1607	736.449	-0.0592	0.0182	-0.0073	-0.0462	0.0165	0.9585
38.9129	1.7377	1.0249	-0.15271	-0.45775	0.69828	1.2132	-26.7122	732.2204	-58.1256	275.1432	67.0903	725.6977	-0.0592	0.0182	-0.0073	-0.0462	0.0165	0.9585
38.9257	1.6816	1.4547	-0.13973	-0.5903	0.68066	1.6053	-23.7329	731.3211	-56.7366	274.3561	64.122	719.2043	-0.0592	0.0182	-0.0073	-0.0462	0.0165	0.9585
38.9386	1.6068	1.7549	-0.13205	-0.67741	0.66285	1.8785	-20.8506	734.8393	-55.3992	275.3847	61.2771	716.7604	-0.0592	0.0182	-0.0073	-0.0462	0.0165	0.9585
38.9514	1.5135	1.9292	-0.12573	-0.72206	0.63858	2.0343	-17.9934	742.0857	-54.1427	277.955	58.5452	717.642	-0.0592	0.0182	-0.0073	-0.0462	0.0165	0.9585
38.9643	1.4032	1.9683	-0.11133	-0.72122	0.59545	2.0596	-15.078	751.876	-52.9908	281.5981	55.9057	720.6827	-0.0592	0.0182	-0.0073	-0.0462	0.0165	0.9585
38.9771	1.2841	1.8351	-0.088059	-0.66184	0.5309	1.9048	-12.0381	762.6522	-51.9342	285.6987	53.3111	724.4052	-0.0592	0.0182	-0.0073	-0.0462	0.0165	0.9585
38.99	1.1288	1.4775	-0.049375	-0.5223	0.4324	1.5204	-8.8117	772.6571	-50.9704	289.5633	50.7237	727.1991	-0.0592	0.0182	-0.0073	-0.0462	0.0165	0.9585
39.0029	0.9623	0.82017	0.0072862	-0.27278	0.30533	0.8107	-5.3426	780.2278	-50.0852	292.5353	48.0989	727.5811	-0.0592	0.0182	-0.0073	-0.0462	0.0165	0.9585
39.0157	0.7784	-0.19744	0.085144	0.11429	0.15029	-0.27749	-1.6141	784.1096	-49.2718	294.1153	45.4159	724.4835	-0.0592	0.0182	-0.0073	-0.0462	0.0165	0.9585
39.0286	0.63158	-1.6278	0.1754	0.65906	-0.0066451	-1.8244	2.3533	783.6651	-48.5286	294.0398	42.6795	717.4516	-0.0592	0.0182	-0.0073	-0.0462	0.0165	0.9585
39.0414	0.55505	-3.456	0.2703	1.3574	-0.13966	-3.8116	6.4338	778.9777	-47.8935	292.3148	39.9746	706.7363	-0.0592	0.0182	-0.0073	-0.0462	0.0165	0.9585
39.0543	0.64416	-5.556	0.34328	2.1596	-0.18516	-6.1134	10.4475	770.7918	-47.4334	289.1958	37.4399	693.1745	-0.0592	0.0182	-0.0073	-0.0462	0.0165	0.9585
39.0671	0.99651	-7.6133	0.36744	2.9444	-0.071171	-8.3843	14.1783	760.3814	-47.2424	285.1352	35.2508	678.0732	-0.0592	0.0182	-0.0073	-0.0462	0.0165	0.9585
39.08	1.7463	-9.0576	0.28692	3.4883	0.31563	-10.0063	17.4507	749.2428	-47.3949	280.6756	33.5527	662.8838	-0.0592	0.0182	-0.0073	-0.0462	0.0165	0.9585
39.0929	3.04	-9.0109	0.048817	3.4453	1.0956	-10.0264	20.1529	738.7901	-47.9244	276.3389	32.4294	648.9317	-0.0592	0.0182	-0.0073	-0.0462	0.0165	0.9585
39.1057	5.0004	-6.2139	-0.42838	2.3213	2.4037	-7.0694	22.3058	730.0627	-48.7862	272.5197	31.845	637.133	-0.0592	0.0182	-0.0073	-0.0462	0.0165	0.9585
39.1186	7.6968	0.93438	-1.2092	-0.51342	4.3323	0.59792	24.0527	723.5326	-49.8917	269.412	31.6787	627.8408	-0.0592	0.0182	-0.0073	-0.0462	0.0165	0.9585
39.1314	11.0319	14.2863	-2.3551	-5.7873	6.9011	15.0241	25.6156	719.0474	-51.0945	266.9882	31.7243	620.8128	-0.0592	0.0182	-0.0073	-0.0462	0.0165	0.9585
39.1443	14.6822	35.6354	-3.8683	-14.2097	9.9741	38.1976	27.2303	715.8715	-52.2178	265.0109	31.7456	615.2847	-0.0592	0.0182	-0.0073	-0.0462	0.0165	0.9585
39.1571	17.9387	66.246	-5.6736	-26.2773	13.1787	71.5418	29.0355	712.8055	-53.0285	263.0723	31.492	610.1291	-0.0592	0.0182	-0.0073	-0.0462	0.0165	0.9585
39.17	19.6178	106.0612	-7.5492	-41.9591	15.7952	115.0282	31.0546	708.2702	-53.2898	260.627	30.7561	603.9264	-0.0592	0.0182	-0.0073	-0.0462	0.0165	0.9585
39.1829	18.1399	152.7755	-9.0728	-60.3344	16.7422	166.2119	33.1727	700.4867	-52.7749	257.0533	29.387	595.1424	-0.0592	0.0182	-0.0073	-0.0462	0.0165	0.9585
39.1957	12.5461	201.4481	-9.5999	-79.435	14.9459	219.7736	35.2369	687.7279	-51.35	251.7447	27.3331	582.3025	-0.0592	0.0182	-0.0073	-0.0462	0.0165	0.9585
39.2086	4.1939	245.5907	-8.1846	-96.6769	9.937	268.5893	37.0581	668.761	-49.0072	244.266	24.659	564.3804	-0.0592	0.0182	-0.0073	-0.0462	0.0165	0.9585
39.2214	-4.4404	280.562	-4.7117	-110.237	2.6129	307.3402	38.522	643.1688	-45.9082	234.4702	21.5466	541.0319	-0.0592	0.0182	-0.0073	-0.0462	0.0165	0.9585
39.2343	-11.8147	305.6541	-0.18581	-119.8754	-5.3249	335.0169	39.5954	611.4692	-42.3357	222.5373	18.2348	512.7165	-0.0592	0.0182	-0.0073	-0.0462	0.0165	0.9585
39.2471	-17.3182	323.0887	4.6695	-126.5006	-12.8202	354.0029	40.348	574.8933	-38.6349	208.9047	14.9742	480.4713	-0.0592	0.0182	-0.0073	-0.0462	0.0165	0.9585
39.26	-20.9612	336.2391	8.9661	-131.4825	-18.9281	367.9745	40.8447	535.1245	-35.0101	194.1784	11.8949	445.7195	-0.0592	0.0182	-0.0073	-0.0462	0.0165	0.9585
